<svg width="81" height="67" viewBox="0 0 81 67" fill="none" xmlns="http://www.w3.org/2000/svg">
<path d="M76.6698 28.6047C73.4458 17.5277 69.81 11.8042 69.7513 11.7015C69.544 11.4486 64.4062 5.30015 52.0232 0.752441L50.3869 5.20744C56.2779 7.37103 60.4573 10.0105 62.7559 11.7159C55.8936 9.66671 47.7302 8.41169 40.5 8.41169C33.2698 8.41169 25.1064 9.66671 18.2441 11.7159C20.5425 10.0106 24.7219 7.37103 30.6129 5.20744L28.9766 0.752441C16.5939 5.30015 11.4561 11.4486 11.2489 11.7015C11.1902 11.8042 7.5542 17.5277 4.33034 28.6047C1.22323 39.2796 0.042873 54.3388 0 54.9427C0.276855 55.3756 6.64453 66.2473 23.9983 66.2473L28.397 59.8777C23.469 58.5692 18.7699 56.4591 14.4683 53.5958L17.0981 49.645C24.0377 54.264 32.1299 56.7057 40.5 56.7057C48.8701 56.7057 56.9623 54.264 63.9019 49.645L66.5317 53.5958C62.2303 56.4591 57.531 58.5692 52.603 59.8777L57.0017 66.2473C74.3555 66.2473 80.7231 55.3756 81 54.9427C80.9571 54.3388 79.7768 39.2796 76.6698 28.6047ZM29.5273 41.0208H24.7813V33.1107H29.5273V41.0208ZM56.2187 41.0208H51.4727V33.1107H56.2187V41.0208Z" fill="url(#paint0_linear)"/>
<defs>
<linearGradient id="paint0_linear" x1="40.5" y1="0.752441" x2="40.5" y2="66.2473" gradientUnits="userSpaceOnUse">
<stop stop-color="#ff4500"/>
<stop offset="1" stop-color="#ff2624"/>
</linearGradient>
</defs>
</svg>
