<svg width="82" height="82" viewBox="0 0 82 82" fill="none" xmlns="http://www.w3.org/2000/svg">
<g clip-path="url(#clip0)">
<path d="M77.0686 36.3614C73.8446 25.2844 70.2087 19.5609 70.1501 19.4582C69.9428 19.2053 64.805 13.0569 52.422 8.50916L50.7857 12.9642C56.6767 15.1277 60.8561 17.7672 63.1546 19.4726C56.2924 17.4234 48.129 16.1684 40.8988 16.1684C33.6686 16.1684 25.5051 17.4234 18.6429 19.4726C20.9413 17.7674 25.1207 15.1277 31.0117 12.9642L29.3754 8.50916C16.9927 13.0569 11.8549 19.2053 11.6476 19.4582C11.589 19.5609 7.95297 25.2844 4.72911 36.3614C1.622 47.0364 0.441646 62.0956 0.398773 62.6994C0.675629 63.1323 7.0433 74.004 24.3971 74.004L28.7958 67.6344C23.8677 66.3259 19.1686 64.2158 14.8671 61.3525L17.4969 57.4017C24.4365 62.0207 32.5287 64.4624 40.8988 64.4624C49.2688 64.4624 57.3611 62.0207 64.3007 57.4017L66.9305 61.3525C62.6291 64.2158 57.9298 66.3259 53.0018 67.6344L57.4005 74.004C74.7542 74.004 81.1219 63.1323 81.3988 62.6994C81.3559 62.0956 80.1755 47.0364 77.0686 36.3614ZM29.9261 48.7775H25.18V40.8674H29.9261V48.7775ZM56.6175 48.7775H51.8714V40.8674H56.6175V48.7775Z" fill="white"/>
</g>
<defs>
<clipPath id="clip0">
<rect width="81" height="81" fill="white" transform="translate(0.398773 0.756592)"/>
</clipPath>
</defs>
</svg>
