<svg width="81" height="81" viewBox="0 0 81 81" fill="none" xmlns="http://www.w3.org/2000/svg">
<g clip-path="url(#clip0)">
<path d="M67.2131 43.9695C65.9036 42.3158 66.2783 41.58 67.2131 40.1017C67.23 40.0849 78.0401 25.1471 79.1539 20.0812L79.1606 20.0779C79.7141 18.2317 79.1606 16.875 76.4843 16.875H67.6283C65.3737 16.875 64.3343 18.0394 63.7774 19.3421C63.7774 19.3421 59.2684 30.1354 52.8896 37.1318C50.8309 39.1534 49.8791 39.8014 48.7552 39.8014C48.2018 39.8014 47.3411 39.1534 47.3411 37.3072V20.0779C47.3411 17.8639 46.71 16.875 44.8436 16.875H30.9184C29.5043 16.875 28.6639 17.9078 28.6639 18.8696C28.6639 20.9689 31.8533 21.4515 32.184 27.3577V40.1726C32.184 42.9806 31.6744 43.497 30.5438 43.497C27.5333 43.497 20.2264 32.6599 15.8962 20.2567C15.0221 17.8504 14.1683 16.8784 11.8969 16.8784H3.0375C0.509625 16.8784 0 18.0427 0 19.3455C0 21.6472 3.0105 33.0919 13.9995 48.2119C21.3232 58.5326 31.6373 64.125 41.0198 64.125C46.6594 64.125 47.3479 62.883 47.3479 60.7466C47.3479 50.8849 46.8382 49.9534 49.6631 49.9534C50.9726 49.9534 53.2271 50.6014 58.4921 55.5795C64.5098 61.4824 65.4986 64.125 68.8669 64.125H77.7229C80.2474 64.125 81.5265 62.883 80.7907 60.4328C79.1066 55.2791 67.7261 44.6782 67.2131 43.9695Z" fill="url(#paint0_linear)"/>
</g>
<defs>
<linearGradient id="paint0_linear" x1="40.4986" y1="16.875" x2="40.4986" y2="64.125" gradientUnits="userSpaceOnUse">
<stop stop-color="#ff4500"/>
<stop offset="1" stop-color="#ff2624"/>
</linearGradient>
<clipPath id="clip0">
<rect width="81" height="81" fill="white"/>
</clipPath>
</defs>
</svg>
