<svg width="82" height="82" viewBox="0 0 82 82" fill="none" xmlns="http://www.w3.org/2000/svg">
<g clip-path="url(#clip0)">
<path d="M67.6778 43.9929C66.3683 42.3392 66.7429 41.6034 67.6778 40.1252C67.6947 40.1083 78.5048 25.1706 79.6185 20.1047L79.6253 20.1013C80.1788 18.2552 79.6253 16.8984 76.9489 16.8984H68.0929C65.8384 16.8984 64.7989 18.0628 64.242 19.3656C64.242 19.3656 59.733 30.1588 53.3543 37.1552C51.2955 39.1768 50.3438 39.8248 49.2199 39.8248C48.6664 39.8248 47.8058 39.1768 47.8058 37.3307V20.1013C47.8058 17.8873 47.1747 16.8984 45.3083 16.8984H31.383C29.9689 16.8984 29.1285 17.9312 29.1285 18.8931C29.1285 20.9923 32.3179 21.4749 32.6487 27.3812V40.1961C32.6487 43.0041 32.139 43.5204 31.0084 43.5204C27.9979 43.5204 20.691 32.6833 16.3609 20.2802C15.4868 17.8738 14.6329 16.9018 12.3615 16.9018H3.50216C0.974286 16.9018 0.464661 18.0662 0.464661 19.3689C0.464661 21.6707 3.47516 33.1153 14.4642 48.2353C21.7879 58.5561 32.1019 64.1484 41.4844 64.1484C47.124 64.1484 47.8125 62.9064 47.8125 60.7701C47.8125 50.9083 47.3029 49.9768 50.1278 49.9768C51.4373 49.9768 53.6918 50.6248 58.9568 55.6029C64.9744 61.5058 65.9633 64.1484 69.3315 64.1484H78.1875C80.712 64.1484 81.9912 62.9064 81.2554 60.4562C79.5713 55.3026 68.1908 44.7017 67.6778 43.9929Z" fill="white"/>
</g>
<defs>
<clipPath id="clip0">
<rect width="81" height="81" fill="white" transform="translate(0.464661 0.0234375)"/>
</clipPath>
</defs>
</svg>
